<svg width="65" height="65" viewBox="0 0 65 65" fill="none" xmlns="http://www.w3.org/2000/svg">
<g clip-path="url(#clip0_1016_532)">
<path d="M9.27236e-05 32.5002C-0.230828 14.7021 14.8047 0.00012607 32.5471 0.0215077C50.2254 0.0557182 65.0471 14.7919 64.9958 32.6541C64.9274 50.3025 50.2211 65.0601 32.3975 65.0216C14.5738 64.9831 -0.260762 50.1143 9.27236e-05 32.5002ZM32.4488 3.84881C26.7765 3.85727 21.2341 5.54669 16.5215 8.70364C11.809 11.8606 8.13785 16.3434 5.97187 21.5858C3.80589 26.8282 3.24225 32.595 4.35216 38.1576C5.46207 43.7202 8.19574 48.829 12.2078 52.8387C16.2199 56.8484 21.3303 59.579 26.8936 60.6856C32.4568 61.7922 38.2233 61.2252 43.4644 59.0561C48.7055 56.887 53.1861 53.2131 56.3403 48.4987C59.4944 43.7843 61.1805 38.2408 61.1856 32.5686C61.2106 28.7872 60.4846 25.0384 59.0498 21.5397C57.615 18.041 55.5 14.862 52.8273 12.1869C50.1546 9.51176 46.9774 7.39386 43.48 5.95595C39.9825 4.51804 36.2345 3.78874 32.453 3.81033L32.4488 3.84881Z" fill="#B5B5B5"/>
<path d="M49.1773 27.9963L46.928 30.9897C45.5254 32.8585 44.1185 34.723 42.7244 36.6003C41.8178 37.819 41.2362 37.8404 40.3254 36.6003C36.9585 32.0389 33.603 27.4561 30.2589 22.8519C29.8741 22.3302 29.4764 21.8213 29.1043 21.2911C28.7323 20.7608 28.8991 20.5812 29.502 20.5898C30.5797 20.5898 31.6402 20.5898 32.7349 20.6282C33.2769 20.6494 33.8063 20.7978 34.2803 21.0615C34.7543 21.3253 35.1595 21.6969 35.4632 22.1463C37.2721 24.6565 39.1237 27.1325 40.8941 29.6684C41.4843 30.5236 41.7922 30.3996 42.3267 29.6684C44.0372 27.2351 45.8547 24.8575 47.5737 22.3986C47.9583 21.811 48.4907 21.335 49.1174 21.0182C49.7442 20.7014 50.4433 20.5552 51.1445 20.594C54.1379 20.6197 54.1379 20.594 54.1379 23.5532C54.1379 30.0219 54.1379 36.4919 54.1379 42.9634C54.1379 44.3019 53.9668 44.4559 52.6497 44.3789C50.7125 44.2634 49.4895 42.9934 49.481 41.0049C49.481 37.0878 49.481 33.1707 49.481 29.2493V28.0947L49.1773 27.9963Z" fill="#B5B5B5"/>
<path d="M22.6348 35.5228C23.3532 35.5228 24.0801 35.4715 24.7729 35.5228C25.3346 35.5675 25.8595 35.8202 26.2447 36.2315C26.6298 36.6428 26.8477 37.1831 26.8555 37.7465C26.8298 38.9695 25.9361 39.8333 24.619 39.8847C23.5071 39.936 22.3953 39.8376 21.2877 40.0557C20.2538 40.2252 19.2703 40.6218 18.4081 41.2171C17.5459 41.8124 16.8264 42.5914 16.3015 43.4981C16.1653 43.7884 15.9425 44.0293 15.6637 44.1878C15.385 44.3463 15.0641 44.4146 14.7449 44.3833C13.8127 44.3449 12.8762 44.3833 11.9397 44.3833C10.8963 44.3833 10.7851 44.2037 11.217 43.233C12.7793 39.7236 14.3473 36.2156 15.9209 32.709C17.2437 29.7583 18.5708 26.8091 19.9022 23.8613C20.0176 23.6133 20.0476 23.2113 20.3811 23.207C20.7831 23.207 20.8088 23.6347 20.9157 23.9169C21.4994 25.5457 21.7543 27.274 21.6655 29.002C21.5767 30.7299 21.1459 32.423 20.3982 33.9833C19.744 35.4929 19.7568 35.4929 21.4502 35.4929H22.6348V35.5228Z" fill="#B5B5B5"/>
<path d="M35.3783 44.3966C33.1161 44.3666 31.4612 43.413 30.529 41.2834C27.7208 34.8575 24.9056 28.4374 22.0832 22.0229C21.5145 20.74 21.6043 20.6203 22.9727 20.6074C25.1109 20.6074 26.723 21.514 27.6467 23.4683C28.6944 25.6749 29.6822 27.9156 30.6829 30.1436C32.5787 34.3657 34.4674 38.5893 36.349 42.8143C37.0161 44.2896 36.9434 44.4094 35.3783 44.3966Z" fill="#B5B5B5"/>
</g>
<defs>
<clipPath id="clip0_1016_532">
<rect width="65" height="65" fill="white"/>
</clipPath>
</defs>
</svg>
