<svg width="48" height="48" viewBox="0 0 48 48" fill="none" xmlns="http://www.w3.org/2000/svg">
<g clip-path="url(#clip0_72_12)">
<mask id="mask0_72_12" style="mask-type:luminance" maskUnits="userSpaceOnUse" x="0" y="0" width="48" height="48">
<path d="M48 0H0V48H48V0Z" fill="white"/>
</mask>
<g mask="url(#mask0_72_12)">
<path d="M40.258 19.9003L38.069 22.9176C36.704 24.8013 35.3348 26.6808 33.978 28.5731C33.0957 29.8015 32.5297 29.8231 31.6433 28.5731C28.3667 23.9752 25.1011 19.3558 21.8467 14.7147C21.4722 14.1889 21.0852 13.6759 20.723 13.1415C20.361 12.6069 20.5233 12.4259 21.1101 12.4346C22.1589 12.4346 23.191 12.4346 24.2563 12.4733C24.7838 12.4946 25.299 12.6442 25.7603 12.91C26.2216 13.1759 26.6159 13.5505 26.9115 14.0035C28.6719 16.5338 30.4739 19.0296 32.1968 21.5857C32.7712 22.4478 33.0708 22.3228 33.591 21.5857C35.2556 19.133 37.0244 16.7364 38.6973 14.2578C39.0716 13.6655 39.5898 13.1857 40.1997 12.8664C40.8097 12.547 41.49 12.3997 42.1724 12.4388C45.0856 12.4647 45.0856 12.4388 45.0856 15.4216C45.0856 21.9421 45.0856 28.4638 45.0856 34.987C45.0856 36.3363 44.9191 36.4915 43.6373 36.4139C41.752 36.2974 40.5618 35.0173 40.5535 33.0129C40.5535 29.0645 40.5535 25.116 40.5535 21.1633V19.9995L40.258 19.9003Z" fill="#BEBEBE"/>
<path d="M14.4285 27.4865C15.1277 27.4865 15.8351 27.4348 16.5093 27.4865C17.056 27.5316 17.5668 27.7863 17.9417 28.2009C18.3165 28.6155 18.5285 29.1601 18.5361 29.728C18.5111 30.9608 17.6414 31.8315 16.3596 31.8833C15.2775 31.935 14.1955 31.8358 13.1176 32.0557C12.1114 32.2265 11.1542 32.6263 10.3152 33.2264C9.47606 33.8264 8.77585 34.6117 8.26502 35.5256C8.13247 35.8182 7.91565 36.0611 7.64432 36.2208C7.37309 36.3806 7.06079 36.4494 6.75015 36.4179C5.84294 36.3792 4.93154 36.4179 4.02015 36.4179C3.00472 36.4179 2.8965 36.2369 3.31682 35.2584C4.83724 31.7209 6.36321 28.1849 7.89462 24.6502C9.18196 21.6759 10.4735 18.7032 11.7692 15.7318C11.8815 15.4818 11.9107 15.0766 12.2353 15.0723C12.6265 15.0723 12.6515 15.5034 12.7555 15.7878C13.3236 17.4297 13.5717 19.1718 13.4852 20.9136C13.3988 22.6553 12.9796 24.362 12.2519 25.9347C11.6152 27.4564 11.6277 27.4564 13.2757 27.4564H14.4285V27.4865Z" fill="black"/>
<path d="M26.8335 36.4316C24.6319 36.4013 23.0214 35.4401 22.1142 33.2935C19.3813 26.8162 16.6415 20.3448 13.8948 13.879C13.3413 12.5858 13.4287 12.4652 14.7605 12.4521C16.8413 12.4521 18.4102 13.366 19.3092 15.3359C20.3288 17.5602 21.2901 19.8188 22.264 22.0646C24.109 26.3205 25.947 30.5778 27.7782 34.8366C28.4274 36.3237 28.3567 36.4445 26.8335 36.4316Z" fill="black"/>
</g>
</g>
<defs>
<clipPath id="clip0_72_12">
<rect width="48" height="48" fill="white"/>
</clipPath>
</defs>
</svg>
